HIERARCHY
ROOT joint_0
{
	OFFSET 0.000000 0.000000 0.000000
	CHANNELS 6 Xposition Yposition Zposition Zrotation Yrotation Xrotation 
	JOINT joint_1
	{
		OFFSET 0.511002 1.944000 108.288940
		CHANNELS 3 Zrotation Yrotation Xrotation
		JOINT joint_2
		{
			OFFSET -9.074005 1.512993 98.440063
			CHANNELS 3 Zrotation Yrotation Xrotation
			JOINT joint_3
			{
				OFFSET -8.590996 1.815002 98.366943
				CHANNELS 3 Zrotation Yrotation Xrotation
				JOINT joint_4
				{
					OFFSET 2.489998 3.531998 136.462036
					CHANNELS 3 Zrotation Yrotation Xrotation
					JOINT joint_5
					{
						OFFSET 22.708000 2.955002 80.357056
						CHANNELS 3 Zrotation Yrotation Xrotation
						End Site
						{
							OFFSET 0.000000 0.000000 0.000000
						}
					}
				}
				JOINT joint_6
				{
					OFFSET 2.860001 -27.684998 77.234009
					CHANNELS 3 Zrotation Yrotation Xrotation
					JOINT joint_7
					{
						OFFSET 5.449997 -131.244003 -18.851929
						CHANNELS 3 Zrotation Yrotation Xrotation
						JOINT joint_8
						{
							OFFSET 35.757000 -24.661995 -264.074097
							CHANNELS 3 Zrotation Yrotation Xrotation
							JOINT joint_9
							{
								OFFSET 49.392001 -1.747002 -239.960938
								CHANNELS 3 Zrotation Yrotation Xrotation
								End Site
								{
									OFFSET 0.000000 0.000000 0.000000
								}
							}
						}
					}
				}
				JOINT joint_10
				{
					OFFSET -0.127998 31.625000 75.753052
					CHANNELS 3 Zrotation Yrotation Xrotation
					JOINT joint_11
					{
						OFFSET -5.618004 131.132996 -19.557007
						CHANNELS 3 Zrotation Yrotation Xrotation
						JOINT joint_12
						{
							OFFSET 46.488998 30.127991 -261.826050
							CHANNELS 3 Zrotation Yrotation Xrotation
							JOINT joint_13
							{
								OFFSET 66.021003 0.474030 -235.934937
								CHANNELS 3 Zrotation Yrotation Xrotation
								End Site
								{
									OFFSET 0.000000 0.000000 0.000000
								}
							}
						}
					}
				}
			}
		}
	}
	JOINT joint_14
	{
		OFFSET 15.887001 -78.871004 -94.561035
		CHANNELS 3 Zrotation Yrotation Xrotation
		JOINT joint_15
		{
			OFFSET -4.133003 6.714001 -473.615967
			CHANNELS 3 Zrotation Yrotation Xrotation
			JOINT joint_16
			{
				OFFSET -19.541000 5.340000 -399.613007
				CHANNELS 3 Zrotation Yrotation Xrotation
				JOINT joint_17
				{
					OFFSET 164.317001 41.657999 -73.195000
					CHANNELS 3 Zrotation Yrotation Xrotation
					End Site
					{
						OFFSET 0.000000 0.000000 0.000000
					}
				}
			}
		}
	}
	JOINT joint_18
	{
		OFFSET 6.513000 77.960991 -96.406982
		CHANNELS 3 Zrotation Yrotation Xrotation
		JOINT joint_19
		{
			OFFSET -10.660004 -8.518997 -473.485016
			CHANNELS 3 Zrotation Yrotation Xrotation
			JOINT joint_20
			{
				OFFSET -36.967995 -11.098999 -398.260010
				CHANNELS 3 Zrotation Yrotation Xrotation
				JOINT joint_21
				{
					OFFSET 166.067997 30.363998 -74.785000
					CHANNELS 3 Zrotation Yrotation Xrotation
					End Site
					{
						OFFSET 0.000000 0.000000 0.000000
					}
				}
			}
		}
	}
}
MOTION
Frames: 15
Frame Time: 0.016667
10.393000 97.623000 1069.223020 1.895676 4.213313 1.850277 1.103497 3.081909 -0.200234 1.062120 -0.434281 0.008160 1.025125 0.691187 -0.082943 0.080808 -3.171578 0.106895 0.000000 0.000000 0.000000 3.078383 -0.889481 -0.866261 -0.618842 -0.361213 -1.448240 -0.454219 -3.250486 -2.212195 0.000000 0.000000 0.000000 -1.235654 -0.351922 -0.786595 0.193485 -0.139837 -0.780785 0.842606 -0.410886 3.041728 0.000000 0.000000 0.000000 -1.928349 -7.882125 -3.725056 -1.404714 20.536414 -2.011474 -2.037592 -5.822179 0.605725 0.000000 0.000000 0.000000 -2.847568 -4.327879 -0.773646 -2.978262 8.886266 -1.906360 -2.854567 -0.960079 -1.085116 0.000000 0.000000 0.000000 
13.280000 98.929000 1069.637940 1.804766 4.038175 1.946625 1.076428 3.518282 -0.230566 0.975587 -0.483370 0.011178 0.932241 0.765494 -0.067739 0.064551 -3.130059 0.161722 0.000000 0.000000 0.000000 3.118743 -1.143538 -0.850175 -0.660082 -0.604350 -1.530850 -0.509447 -3.652927 -2.462648 0.000000 0.000000 0.000000 -1.310571 -0.601562 -0.749674 0.153130 -0.395042 -0.996005 0.943644 -0.325700 3.405051 0.000000 0.000000 0.000000 -1.724120 -9.402680 -3.885421 -1.027354 24.055007 -2.299588 -1.673687 -5.205532 0.611261 0.000000 0.000000 0.000000 -2.838349 -4.346693 -0.931073 -2.950457 9.614910 -2.035555 -2.823361 -0.886946 -1.080552 0.000000 0.000000 0.000000 
16.082000 100.226000 1069.958980 1.643096 3.858090 2.001521 1.078444 3.977122 -0.211428 0.880959 -0.532548 0.001078 0.830395 0.840431 -0.051754 0.044006 -3.093693 0.231803 0.000000 0.000000 0.000000 3.166153 -1.399384 -0.840161 -0.695006 -0.849507 -1.631940 -0.543685 -4.051279 -2.614143 0.000000 0.000000 0.000000 -1.386259 -0.831076 -0.697226 0.120329 -0.627061 -1.155073 1.006635 -0.325484 3.628637 0.000000 0.000000 0.000000 -1.550657 -11.103983 -4.038839 -0.625555 27.796964 -2.457039 -1.235148 -4.385452 0.593115 0.000000 0.000000 0.000000 -2.818216 -4.379873 -1.042455 -2.902210 10.402116 -2.179368 -2.769105 -0.884250 -1.052358 0.000000 0.000000 0.000000 
18.728000 101.588000 1070.188960 1.376676 3.682978 1.993513 1.126790 4.444717 -0.111784 0.778127 -0.573584 -0.027731 0.719218 0.915695 -0.038162 0.019954 -3.064664 0.314628 0.000000 0.000000 0.000000 3.224447 -1.669499 -0.844068 -0.718803 -1.109850 -1.772805 -0.547385 -4.420593 -2.623639 0.000000 0.000000 0.000000 -1.464426 -1.030105 -0.628024 0.099256 -0.823882 -1.242335 1.016325 -0.455944 3.656855 0.000000 0.000000 0.000000 -1.413375 -13.101258 -4.180025 -0.173245 31.931330 -2.440812 -0.679887 -3.227114 0.532190 0.000000 0.000000 0.000000 -2.783883 -4.447482 -1.084458 -2.824249 11.271089 -2.350416 -2.681794 -0.981772 -0.990655 0.000000 0.000000 0.000000 
21.289000 102.941000 1070.326050 1.064968 3.500932 1.986495 1.206768 4.940242 -0.048247 0.655989 -0.618461 -0.025315 0.580837 0.991230 -0.022376 -0.008154 -3.039334 0.411322 0.000000 0.000000 0.000000 3.289330 -1.942306 -0.853457 -0.734945 -1.373378 -1.931293 -0.529612 -4.780936 -2.532997 0.000000 0.000000 0.000000 -1.542130 -1.207563 -0.537880 0.086115 -0.996285 -1.277561 0.988692 -0.678180 3.549313 0.000000 0.000000 0.000000 -1.348998 -15.269092 -4.334672 0.303211 36.205126 -2.329094 -0.029424 -1.687555 0.404732 0.000000 0.000000 0.000000 -2.749382 -4.531671 -1.127693 -2.733546 12.193602 -2.530345 -2.576026 -1.121087 -0.912874 0.000000 0.000000 0.000000 
24.001000 104.039000 1070.311040 0.772712 3.297135 2.002632 1.309265 5.479195 -0.051399 0.522309 -0.683247 0.003420 0.422856 1.073147 -0.001553 -0.047891 -3.008145 0.546092 0.000000 0.000000 0.000000 3.321679 -2.190344 -0.847308 -0.749405 -1.617425 -2.082553 -0.499309 -5.165982 -2.382710 0.000000 0.000000 0.000000 -1.626114 -1.369474 -0.423571 0.082445 -1.148194 -1.238810 0.926518 -0.967738 3.318671 0.000000 0.000000 0.000000 -1.404130 -17.240773 -4.460836 0.691394 39.976373 -2.231192 0.515544 -0.319266 0.269548 0.000000 0.000000 0.000000 -2.714286 -4.571917 -1.198101 -2.645657 13.093438 -2.679788 -2.466884 -1.268796 -0.832553 0.000000 0.000000 0.000000 
26.884000 104.791000 1070.026980 0.465366 3.065784 2.008966 1.456587 6.066560 -0.059355 0.385140 -0.758894 0.013842 0.258325 1.166426 0.021740 -0.104815 -2.976054 0.737781 0.000000 0.000000 0.000000 3.312057 -2.409581 -0.826689 -0.763886 -1.838285 -2.210506 -0.454109 -5.619377 -2.159388 0.000000 0.000000 0.000000 -1.725781 -1.517076 -0.267226 0.091975 -1.277997 -1.091779 0.811355 -1.362275 2.900513 0.000000 0.000000 0.000000 -1.542133 -18.999466 -4.476589 1.012191 43.409809 -2.203414 0.931733 0.502250 0.216790 0.000000 0.000000 0.000000 -2.660581 -4.543651 -1.259550 -2.547349 13.958528 -2.796934 -2.340181 -1.475155 -0.734574 0.000000 0.000000 0.000000 
29.916000 105.289000 1069.590940 0.136469 2.825992 2.002315 1.641215 6.670282 -0.060894 0.247494 -0.840085 0.012770 0.090770 1.265528 0.047790 -0.173178 -2.936637 0.965499 0.000000 0.000000 0.000000 3.272417 -2.603238 -0.790926 -0.777142 -2.038581 -2.332391 -0.396417 -6.095421 -1.875636 0.000000 0.000000 0.000000 -1.828635 -1.645962 -0.089022 0.112705 -1.384041 -0.871897 0.663014 -1.834258 2.366653 0.000000 0.000000 0.000000 -1.748771 -20.610439 -4.414794 1.262127 46.484076 -2.213390 1.166401 0.920553 0.196482 0.000000 0.000000 0.000000 -2.588407 -4.480201 -1.305956 -2.441999 14.804873 -2.892365 -2.202473 -1.711270 -0.627175 0.000000 0.000000 0.000000 
33.270000 105.556000 1069.296020 -0.166328 2.617125 1.989328 1.800157 7.211854 -0.051899 0.136540 -0.923235 0.021185 -0.048276 1.357945 0.073511 -0.242812 -2.868144 1.191902 0.000000 0.000000 0.000000 3.208155 -2.754320 -0.718581 -0.791585 -2.202702 -2.472183 -0.343013 -6.495650 -1.616253 0.000000 0.000000 0.000000 -1.897140 -1.754498 0.055141 0.136465 -1.473257 -0.663602 0.540871 -2.250307 1.927763 0.000000 0.000000 0.000000 -2.017348 -21.891742 -4.363133 1.321728 48.455654 -2.219826 0.931146 0.857025 0.130402 0.000000 0.000000 0.000000 -2.506911 -4.416561 -1.338375 -2.348816 15.602136 -2.959962 -2.086194 -1.860853 -0.545967 0.000000 0.000000 0.000000 
36.941000 105.598000 1069.227050 -0.440581 2.441546 1.956625 1.906268 7.688160 -0.005652 0.074944 -1.015260 0.033139 -0.131977 1.453471 0.094987 -0.311658 -2.761110 1.408470 0.000000 0.000000 0.000000 3.108772 -2.864355 -0.577832 -0.812910 -2.336026 -2.674285 -0.294207 -6.816289 -1.384119 0.000000 0.000000 0.000000 -1.915596 -1.861854 0.138822 0.159193 -1.567073 -0.468621 0.455546 -2.561514 1.620547 0.000000 0.000000 0.000000 -2.364543 -22.766578 -4.354854 1.103057 49.098895 -2.162785 0.016625 0.040582 0.013262 0.000000 0.000000 0.000000 -2.415671 -4.352656 -1.344335 -2.267190 16.338847 -2.991344 -1.998147 -1.895138 -0.499076 0.000000 0.000000 0.000000 
40.933000 105.410000 1069.300050 -0.734115 2.312980 1.889224 1.967580 8.070150 0.099811 0.069276 -1.096190 0.027043 -0.146653 1.547736 0.111678 -0.381502 -2.627877 1.622923 0.000000 0.000000 0.000000 2.984470 -2.932041 -0.402227 -0.836586 -2.433313 -2.895857 -0.250202 -7.064077 -1.180316 0.000000 0.000000 0.000000 -1.901847 -1.951934 0.183339 0.183986 -1.647178 -0.284508 0.394637 -2.806361 1.400451 0.000000 0.000000 0.000000 -2.725235 -23.352795 -4.344383 0.703852 48.700335 -2.050121 -1.264029 -1.316725 -0.107606 0.000000 0.000000 0.000000 -2.306133 -4.300910 -1.303280 -2.178394 17.028278 -3.002664 -1.920172 -1.860118 -0.470034 0.000000 0.000000 0.000000 
45.424000 105.005000 1069.547000 -1.084393 2.285970 1.783199 1.969344 8.251513 0.278681 0.127317 -1.134643 -0.013589 -0.075302 1.608220 0.128809 -0.446314 -2.473590 1.817420 0.000000 0.000000 0.000000 2.881639 -2.933240 -0.274845 -0.851284 -2.457989 -3.023816 -0.230270 -7.163560 -1.100108 0.000000 0.000000 0.000000 -1.862105 -1.970219 0.209105 0.210609 -1.663216 -0.197491 0.381106 -2.975063 1.349235 0.000000 0.000000 0.000000 -2.985249 -23.757399 -4.295761 0.253142 47.287238 -1.953927 -2.457316 -2.583880 -0.240524 0.000000 0.000000 0.000000 -2.173508 -4.312184 -1.195653 -2.068502 17.677616 -3.027033 -1.843996 -1.758209 -0.454682 0.000000 0.000000 0.000000 
50.474000 104.428000 1070.100950 -1.495834 2.398004 1.640039 1.895024 8.190184 0.524504 0.256586 -1.135744 -0.080149 0.088974 1.621297 0.155310 -0.504222 -2.285065 1.985493 0.000000 0.000000 0.000000 2.810681 -2.849920 -0.235205 -0.854312 -2.387541 -3.005932 -0.248855 -7.075684 -1.213374 0.000000 0.000000 0.000000 -1.785946 -1.887874 0.211563 0.239975 -1.591220 -0.282574 0.442513 -3.069734 1.565296 0.000000 0.000000 0.000000 -3.154690 -23.936697 -4.219345 -0.299701 44.509138 -1.897739 -3.510381 -3.369933 -0.469472 0.000000 0.000000 0.000000 -2.010596 -4.414447 -1.023827 -1.933969 18.258425 -3.065437 -1.771988 -1.547966 -0.461718 0.000000 0.000000 0.000000 
56.022000 103.633000 1070.829960 -1.903215 2.586133 1.492922 1.768483 7.985049 0.779807 0.420429 -1.124316 -0.141684 0.294842 1.600440 0.187948 -0.557370 -2.074703 2.135698 0.000000 0.000000 0.000000 2.758593 -2.699319 -0.243311 -0.850858 -2.243757 -2.898656 -0.293608 -6.843480 -1.455088 0.000000 0.000000 0.000000 -1.687475 -1.735176 0.190820 0.270762 -1.456062 -0.462819 0.550673 -3.084635 1.947927 0.000000 0.000000 0.000000 -3.322825 -23.809652 -4.153980 -1.009886 40.483218 -1.810480 -4.421738 -3.691298 -0.784550 0.000000 0.000000 0.000000 -1.833668 -4.559744 -0.831401 -1.803304 18.797196 -3.099106 -1.723226 -1.252192 -0.494776 0.000000 0.000000 0.000000 
62.061000 102.495000 1071.370970 -2.266599 2.771032 1.364899 1.640718 7.710360 1.018907 0.572264 -1.089237 -0.200223 0.486221 1.562030 0.213293 -0.604113 -1.895544 2.269538 0.000000 0.000000 0.000000 2.729089 -2.513337 -0.264431 -0.839845 -2.060880 -2.749264 -0.343414 -6.510543 -1.717539 0.000000 0.000000 0.000000 -1.610342 -1.547838 0.170010 0.299841 -1.281740 -0.593737 0.645262 -2.999382 2.281779 0.000000 0.000000 0.000000 -3.471333 -23.467178 -4.078545 -1.723311 36.002915 -1.658630 -4.975567 -3.685535 -1.052446 0.000000 0.000000 0.000000 -1.670247 -4.701196 -0.634695 -1.700880 19.387649 -3.139776 -1.707979 -0.974090 -0.538505 0.000000 0.000000 0.000000 
